<svg xmlns="http://www.w3.org/2000/svg" viewBox="0 0 73.734 92"><g fill="#3dcc76"><path d="M72.622 4.618A145.484 145.484 0 0 0 36.669 0 140.788 140.788 0 0 0 1.106 4.621L0 4.91V51a26.3 26.3 0 0 0 7.288 18.491 111.96 111.96 0 0 0 28.879 22.154l.663.355.68-.327a93.667 93.667 0 0 0 29.342-22.321 26.013 26.013 0 0 0 6.882-18.047v-46.4zm-1.848 46.687a23.166 23.166 0 0 1-6.131 16.074 90.836 90.836 0 0 1-27.737 21.295 108.793 108.793 0 0 1-27.453-21.2 23.136 23.136 0 0 1-6.491-16.473v-43.8a137.727 137.727 0 0 1 33.707-4.24 142.152 142.152 0 0 1 34.105 4.247z"/><path d="M20.162 14.767c-8.228 4.709-7.27 16.791-2.672 26.675a8.522 8.522 0 0 1 .669 5.469 27.923 27.923 0 0 0-.506 5.308 25.887 25.887 0 0 0 5.169 15.823 4.579 4.579 0 0 0 4.72 1.642 4.5 4.5 0 0 0 3.42-3.639l2.447-14.011a2.6 2.6 0 0 1 2.608-2.167h1.7a2.6 2.6 0 0 1 2.608 2.167l2.447 14.011a4.5 4.5 0 0 0 3.42 3.639 4.593 4.593 0 0 0 1.123.136 4.534 4.534 0 0 0 3.6-1.779 25.889 25.889 0 0 0 5.167-15.823 27.923 27.923 0 0 0-.506-5.308 8.531 8.531 0 0 1 .669-5.469c4.6-9.884 5.557-21.966-2.673-26.675-3.811-2.181-8.938-1.827-13.977.952a6.842 6.842 0 0 1-2.728.85 6.887 6.887 0 0 1-2.729-.85c-5.035-2.78-10.164-3.129-13.976-.951zm16.812 4.766a9.794 9.794 0 0 0 4.052-1.223c4.11-2.264 8.163-2.638 11.076-.972 7.537 4.314 4.461 16.394 1.454 22.859-.148.32-.244.643-.364.963-.006.012-.015.018-.021.03a25.285 25.285 0 0 1-5.143 7.194 1.482 1.482 0 0 0 2.038 2.153 25.26 25.26 0 0 0 2.614-2.962 25.033 25.033 0 0 1 .44 4.652 22.925 22.925 0 0 1-4.548 14.008 1.58 1.58 0 0 1-1.675.579 1.539 1.539 0 0 1-1.2-1.269l-2.451-14.016a5.587 5.587 0 0 0-5.525-4.621h-1.7a5.587 5.587 0 0 0-5.525 4.621l-2.449 14.008a1.537 1.537 0 0 1-1.2 1.272 1.577 1.577 0 0 1-1.673-.579 22.916 22.916 0 0 1-4.55-14.008 25.062 25.062 0 0 1 .453-4.745 11.5 11.5 0 0 0-.893-7.283c-3-6.458-6.079-18.542 1.456-22.854 2.912-1.668 6.963-1.294 11.076.972a9.8 9.8 0 0 0 4.053 1.223c.064.001.134.001.205-.002z"/><path d="M30.147 21.329a1.482 1.482 0 0 0 .35 2.066 11.154 11.154 0 0 0 12.68.044 1.482 1.482 0 0 0-1.7-2.429 8.416 8.416 0 0 1-9.268-.031 1.474 1.474 0 0 0-2.062.35z"/></g></svg>