<svg xmlns="http://www.w3.org/2000/svg" viewBox="0 0 188.217 60"><g data-name="Group 219" fill="#fff"><path data-name="Path 160" d="M5.636 57.538a3.489 3.489 0 0 1-.6 1.711A1.788 1.788 0 0 1 3.459 60a2.05 2.05 0 0 1-1.278-.412 2.621 2.621 0 0 1-.828-1.147 4.521 4.521 0 0 1-.287-1.666 5.652 5.652 0 0 1 .279-1.838 2.739 2.739 0 0 1 .858-1.276 2.2 2.2 0 0 1 1.431-.468 1.749 1.749 0 0 1 1.095.336 2.025 2.025 0 0 1 .655.87 3.614 3.614 0 0 1 .256 1.147h-.868q-.182-1.379-1.27-1.379a1.169 1.169 0 0 0-1.12.716 3.815 3.815 0 0 0-.353 1.709q0 2.471 1.463 2.472a1.055 1.055 0 0 0 .817-.4 2.193 2.193 0 0 0 .464-1.124zm6.541-3.26h-1.708v5.539h-.9v-5.539H7.86v-.9h4.316zm7.317 2.314a4.923 4.923 0 0 1-.275 1.649 2.915 2.915 0 0 1-.839 1.262 2.035 2.035 0 0 1-1.373.486 2.038 2.038 0 0 1-1.373-.486 2.907 2.907 0 0 1-.84-1.262 4.923 4.923 0 0 1-.275-1.649 4.931 4.931 0 0 1 .275-1.649 2.9 2.9 0 0 1 .84-1.264 2.035 2.035 0 0 1 1.373-.486 2.032 2.032 0 0 1 1.373.486 2.907 2.907 0 0 1 .839 1.264 4.931 4.931 0 0 1 .274 1.649zm-.932 0a4.756 4.756 0 0 0-.133-1.093 2.253 2.253 0 0 0-.485-.966 1.172 1.172 0 0 0-.936-.4 1.173 1.173 0 0 0-.939.406 2.278 2.278 0 0 0-.483.966 4.7 4.7 0 0 0-.134 1.089 4.7 4.7 0 0 0 .134 1.089 2.282 2.282 0 0 0 .483.966 1.173 1.173 0 0 0 .939.406 1.172 1.172 0 0 0 .936-.4 2.255 2.255 0 0 0 .485-.966 4.757 4.757 0 0 0 .132-1.097zm9.854 3.225l-.869.012v-3.742c0-.281.007-.552.019-.812s.022-.451.03-.566h-.071l-1.676 5.108h-.858l-1.678-5.108h-.073c.008.109.019.285.033.527s.02.525.02.852v3.73h-.869v-6.437h1.338l1.668 5.059 1.646-5.059h1.341zm7.995 0l-.165.059a1.028 1.028 0 0 1-.154.043.717.717 0 0 1-.174.021.852.852 0 0 1-.728-.263 1.38 1.38 0 0 1-.225-.724 3.149 3.149 0 0 1-.789.751 2.037 2.037 0 0 1-1.145.3 1.629 1.629 0 0 1-.868-.234 1.575 1.575 0 0 1-.6-.656 2.124 2.124 0 0 1-.213-.967 2.641 2.641 0 0 1 .326-1.27 1.634 1.634 0 0 1 1.3-.755l1.481-.222c.314-.035.471-.287.471-.761q0-1.05-1.258-1.049a1.039 1.039 0 0 0-.918.357 1.958 1.958 0 0 0-.308.886h-.831a2.172 2.172 0 0 1 .6-1.627 2.325 2.325 0 0 1 1.61-.515 3.015 3.015 0 0 1 .8.127 1.739 1.739 0 0 1 .82.527 1.642 1.642 0 0 1 .367 1.143v3.705q0 .382.3.381a1.563 1.563 0 0 0 .3-.047zm-1.5-2.228v-1.06a1.033 1.033 0 0 1-.418.2 9.517 9.517 0 0 1-1.066.207 3.026 3.026 0 0 0-.546.142 1 1 0 0 0-.422.312.916.916 0 0 0-.179.593q0 1.117.972 1.118a1.716 1.716 0 0 0 .8-.2 1.66 1.66 0 0 0 .623-.55 1.335 1.335 0 0 0 .239-.762zm8.064-3.311h-1.708v5.539h-.9v-5.539h-1.709v-.9h4.318zm7.317 2.314a4.923 4.923 0 0 1-.275 1.649 2.92 2.92 0 0 1-.839 1.262 2.035 2.035 0 0 1-1.373.486 2.038 2.038 0 0 1-1.373-.486 2.91 2.91 0 0 1-.841-1.262 4.942 4.942 0 0 1-.275-1.649 4.95 4.95 0 0 1 .275-1.649 2.9 2.9 0 0 1 .841-1.264 2.035 2.035 0 0 1 1.373-.486 2.032 2.032 0 0 1 1.373.486 2.911 2.911 0 0 1 .839 1.264 4.931 4.931 0 0 1 .278 1.649zm-.932 0a4.756 4.756 0 0 0-.133-1.093 2.253 2.253 0 0 0-.485-.966 1.173 1.173 0 0 0-.936-.4 1.175 1.175 0 0 0-.94.406 2.285 2.285 0 0 0-.482.966 4.7 4.7 0 0 0-.133 1.089 4.694 4.694 0 0 0 .133 1.089 2.29 2.29 0 0 0 .482.966 1.174 1.174 0 0 0 .94.406 1.173 1.173 0 0 0 .936-.4 2.255 2.255 0 0 0 .485-.966 4.757 4.757 0 0 0 .136-1.097zm7.736 3.225h-.9v-5.539h-2.075v3.8a2.583 2.583 0 0 1-.312 1.272 1.21 1.21 0 0 1-1.162.564v-1a.6.6 0 0 0 .495-.166 1.181 1.181 0 0 0 .13-.673v-4.7h3.826zm7.9-3.225a4.942 4.942 0 0 1-.275 1.649 2.916 2.916 0 0 1-.839 1.262 2.035 2.035 0 0 1-1.373.486 2.038 2.038 0 0 1-1.373-.486 2.907 2.907 0 0 1-.84-1.262 4.923 4.923 0 0 1-.275-1.649 4.931 4.931 0 0 1 .275-1.649 2.9 2.9 0 0 1 .84-1.264 2.034 2.034 0 0 1 1.373-.486 2.032 2.032 0 0 1 1.373.486 2.907 2.907 0 0 1 .839 1.264 4.95 4.95 0 0 1 .277 1.649zm-.933 0a4.783 4.783 0 0 0-.133-1.093 2.25 2.25 0 0 0-.484-.966 1.174 1.174 0 0 0-.937-.4 1.173 1.173 0 0 0-.939.406 2.281 2.281 0 0 0-.483.966 4.7 4.7 0 0 0-.133 1.089 4.693 4.693 0 0 0 .133 1.089 2.285 2.285 0 0 0 .483.966 1.173 1.173 0 0 0 .939.406 1.173 1.173 0 0 0 .937-.4 2.252 2.252 0 0 0 .484-.966 4.783 4.783 0 0 0 .135-1.097zm7.338-2.314h-2.577v5.539h-.9V53.38h3.479zm6.867 5.539h-.9V54.99h-.021l-2.343 4.827h-1.042V53.38h.9v4.823h.02l2.292-4.823h1.095zm7.561 0h-.9V56.91a7.36 7.36 0 0 1-.759.279 3.574 3.574 0 0 1-1.083.166q-1.563 0-1.564-1.687v-2.289h.9v2.127q0 .9.99.9a3.094 3.094 0 0 0 .873-.129c.292-.086.506-.158.642-.214V53.38h.9zm7.837-2.866H89.76a2.658 2.658 0 0 0 .394 1.566 1.34 1.34 0 0 0 1.16.547 1.239 1.239 0 0 0 .7-.205 1.532 1.532 0 0 0 .488-.5 1.269 1.269 0 0 0 .192-.555h.9a3.023 3.023 0 0 1-.274.876 2.339 2.339 0 0 1-.678.884 2.245 2.245 0 0 1-1.454.441 2.045 2.045 0 0 1-1.277-.412 2.621 2.621 0 0 1-.829-1.147 4.536 4.536 0 0 1-.286-1.666 5.645 5.645 0 0 1 .28-1.838 2.747 2.747 0 0 1 .856-1.276 2.205 2.205 0 0 1 1.433-.468 1.847 1.847 0 0 1 1.273.46 2.76 2.76 0 0 1 .773 1.306 6.929 6.929 0 0 1 .257 1.987zm-.931-.863q-.1-1.92-1.493-1.92a1.18 1.18 0 0 0-.744.269 1.848 1.848 0 0 0-.542.712 2.286 2.286 0 0 0-.2.939zm8.093 1.451a3.49 3.49 0 0 1-.6 1.711 1.788 1.788 0 0 1-1.577.751 2.05 2.05 0 0 1-1.278-.412 2.621 2.621 0 0 1-.828-1.147 4.521 4.521 0 0 1-.286-1.666 5.652 5.652 0 0 1 .279-1.838 2.741 2.741 0 0 1 .858-1.276 2.2 2.2 0 0 1 1.431-.468 1.749 1.749 0 0 1 1.095.336 2.025 2.025 0 0 1 .655.87 3.62 3.62 0 0 1 .256 1.147h-.868q-.182-1.379-1.27-1.379a1.17 1.17 0 0 0-1.12.716 3.815 3.815 0 0 0-.353 1.709q0 2.471 1.463 2.472a1.055 1.055 0 0 0 .817-.4 2.193 2.193 0 0 0 .464-1.124zm7.235 2.279h-1.155l-1.974-3-.439.564v2.437h-.872v-6.437h.872v2.72l2.3-2.72h1.146l-2.353 2.644zm6.867 0h-.9v-4.827h-.021l-2.343 4.827h-1.041v-6.437h.9v4.823h.02l2.292-4.823h1.095zm6.988-9q-.156 1.674-1.628 1.674-1.369 0-1.523-1.674h.5a1.772 1.772 0 0 0 .246.589.989.989 0 0 0 .859.382.885.885 0 0 0 .744-.271 1.823 1.823 0 0 0 .31-.7zm.574 9h-.9v-4.827h-.021l-2.343 4.827h-1.042v-6.437h.9v4.823h.021l2.292-4.823h1.095zm12.8 0h-1.157l-1.973-3-.439.564v2.437h-.872v-6.437h.872v2.72l2.3-2.72h1.146l-2.353 2.644zm7.194-3.225a4.923 4.923 0 0 1-.275 1.649 2.915 2.915 0 0 1-.839 1.262 2.035 2.035 0 0 1-1.373.486 2.038 2.038 0 0 1-1.373-.486 2.907 2.907 0 0 1-.84-1.262 4.924 4.924 0 0 1-.275-1.649 4.931 4.931 0 0 1 .275-1.649 2.9 2.9 0 0 1 .84-1.264 2.035 2.035 0 0 1 1.373-.486 2.032 2.032 0 0 1 1.373.486 2.907 2.907 0 0 1 .839 1.264 4.93 4.93 0 0 1 .276 1.648zm-.932 0a4.756 4.756 0 0 0-.133-1.093 2.253 2.253 0 0 0-.485-.966 1.171 1.171 0 0 0-.936-.4 1.173 1.173 0 0 0-.939.406 2.278 2.278 0 0 0-.483.966 4.7 4.7 0 0 0-.133 1.089 4.7 4.7 0 0 0 .133 1.089 2.282 2.282 0 0 0 .483.966 1.173 1.173 0 0 0 .939.406 1.171 1.171 0 0 0 .936-.4 2.255 2.255 0 0 0 .485-.966 4.757 4.757 0 0 0 .134-1.098zm9.854 3.225l-.87.012v-3.742c0-.281.007-.552.019-.812s.022-.451.03-.566h-.071l-1.676 5.108h-.858l-1.678-5.108h-.073c.008.109.019.285.033.527s.02.525.02.852v3.73h-.869v-6.437h1.338l1.668 5.059 1.646-5.059h1.342zm7.573 0h-.9v-5.539h-2.505v5.539h-.9v-6.437h4.308zm7.131 0h-.9v-5.539h-2.076v3.8a2.588 2.588 0 0 1-.312 1.272 1.21 1.21 0 0 1-1.162.564v-1a.6.6 0 0 0 .495-.166 1.181 1.181 0 0 0 .13-.673v-4.7h3.826zm7.848-2.866h-3.908a2.654 2.654 0 0 0 .394 1.566 1.34 1.34 0 0 0 1.16.547 1.239 1.239 0 0 0 .7-.205 1.532 1.532 0 0 0 .488-.5 1.269 1.269 0 0 0 .192-.555h.9a3.023 3.023 0 0 1-.274.876 2.336 2.336 0 0 1-.678.884 2.245 2.245 0 0 1-1.454.441 2.046 2.046 0 0 1-1.277-.412 2.621 2.621 0 0 1-.829-1.147 4.536 4.536 0 0 1-.286-1.666 5.645 5.645 0 0 1 .28-1.838 2.747 2.747 0 0 1 .856-1.276 2.2 2.2 0 0 1 1.432-.468 1.847 1.847 0 0 1 1.274.46 2.763 2.763 0 0 1 .773 1.306 6.956 6.956 0 0 1 .258 1.986zm-.931-.863q-.1-1.92-1.494-1.92a1.179 1.179 0 0 0-.743.269 1.848 1.848 0 0 0-.542.712 2.286 2.286 0 0 0-.2.939zm8.339 3.73h-1.158l-1.973-3-.44.564v2.437h-.871v-6.437h.871v2.72l2.3-2.72h1.146l-2.354 2.644zm6.744-2.279a3.475 3.475 0 0 1-.6 1.711 1.788 1.788 0 0 1-1.577.751 2.05 2.05 0 0 1-1.277-.412 2.624 2.624 0 0 1-.829-1.147 4.536 4.536 0 0 1-.286-1.666 5.631 5.631 0 0 1 .28-1.838 2.735 2.735 0 0 1 .853-1.276 2.194 2.194 0 0 1 1.43-.468 1.746 1.746 0 0 1 1.095.336 2.022 2.022 0 0 1 .655.87 3.62 3.62 0 0 1 .256 1.147h-.868q-.182-1.379-1.27-1.379a1.17 1.17 0 0 0-1.12.716 3.826 3.826 0 0 0-.353 1.709q0 2.471 1.463 2.472a1.053 1.053 0 0 0 .817-.4 2.193 2.193 0 0 0 .464-1.124z" fill-rule="evenodd"/><path data-name="Path 161" d="M40.019 23.814h-9.456V39.37a4.088 4.088 0 0 0 .518 2.555 3.767 3.767 0 0 0 2.427.605v.554h-8.779v-.554a3.758 3.758 0 0 0 2.422-.605 4.034 4.034 0 0 0 .528-2.555V26.415a4.03 4.03 0 0 0-.528-2.555 3.8 3.8 0 0 0-2.422-.6v-.559h21.124v.559a3.808 3.808 0 0 0-2.422.6 4.03 4.03 0 0 0-.528 2.555V39.37a4.034 4.034 0 0 0 .528 2.555 3.771 3.771 0 0 0 2.422.605v.554h-8.764v-.554a3.8 3.8 0 0 0 2.4-.6 4 4 0 0 0 .528-2.565z" fill-rule="evenodd"/><path data-name="Path 162" d="M51.716 35.17v4.928a3.44 3.44 0 0 0 .354 1.985 1.785 1.785 0 0 0 1.431.549h.652v.46h-7.249v-.46h.635a1.7 1.7 0 0 0 1.533-.7 4.135 4.135 0 0 0 .251-1.836V29.164a3.533 3.533 0 0 0-.336-1.98 1.835 1.835 0 0 0-1.448-.549h-.635v-.464h6.2a11.005 11.005 0 0 1 3.578.469 4.913 4.913 0 0 1 2.21 1.58 4.049 4.049 0 0 1 .9 2.632 4.435 4.435 0 0 1-1.367 3.369 5.391 5.391 0 0 1-3.863 1.3 10.577 10.577 0 0 1-1.32-.09 19.036 19.036 0 0 1-1.526-.261zm0-.711c.443.081.835.145 1.176.187a7.992 7.992 0 0 0 .873.06 2.965 2.965 0 0 0 2.24-1.005 3.648 3.648 0 0 0 .941-2.6 4.689 4.689 0 0 0-.447-2.04 3.1 3.1 0 0 0-1.273-1.41 3.7 3.7 0 0 0-1.874-.469 7.421 7.421 0 0 0-1.636.234zm14.315-7.364v6.686h3.72a3.037 3.037 0 0 0 1.933-.434 2.809 2.809 0 0 0 .724-2.023h.46v5.89h-.46a6.477 6.477 0 0 0-.349-1.584 1.565 1.565 0 0 0-.737-.686 3.752 3.752 0 0 0-1.571-.252h-3.72v5.579a5.35 5.35 0 0 0 .1 1.367.81.81 0 0 0 .349.388 2.172 2.172 0 0 0 .95.141h2.87a7.626 7.626 0 0 0 2.083-.2 3.079 3.079 0 0 0 1.248-.783 9.624 9.624 0 0 0 1.585-2.334h.5l-1.456 4.242H61.214v-.46h.6a2.373 2.373 0 0 0 1.133-.289 1.052 1.052 0 0 0 .545-.6 6.018 6.018 0 0 0 .141-1.636V29.115a3.641 3.641 0 0 0-.323-1.984 1.928 1.928 0 0 0-1.5-.5h-.6v-.464h13.041l.187 3.705h-.49a5.8 5.8 0 0 0-.579-1.831 2 2 0 0 0-.942-.762 5.688 5.688 0 0 0-1.759-.187zm11.851 3.633v-4.919h.435c.137.55.443.827.924.827a4.682 4.682 0 0 0 1.175-.337 8.6 8.6 0 0 1 2.956-.511 4.579 4.579 0 0 1 3.369 1.256 4.029 4.029 0 0 1 1.273 2.947 3.835 3.835 0 0 1-.963 2.628 5.6 5.6 0 0 1-2.542 1.6 4.584 4.584 0 0 1 2.781 1.567 4.422 4.422 0 0 1 1.061 2.951 4.2 4.2 0 0 1-1.623 3.415 6.166 6.166 0 0 1-4.028 1.325 6.135 6.135 0 0 1-5.554-3.394l.426-.277a5.45 5.45 0 0 0 1.844 1.784 4.845 4.845 0 0 0 2.606.75 3.155 3.155 0 0 0 2.576-1.1 4.075 4.075 0 0 0 .92-2.7 3.747 3.747 0 0 0-1.163-2.786 5.378 5.378 0 0 0-3.841-1.132v-.826a7.867 7.867 0 0 0 2.858-.4 3.444 3.444 0 0 0 1.559-1.3 3.668 3.668 0 0 0 .6-2.083 3.122 3.122 0 0 0-.839-2.249 3 3 0 0 0-2.27-.873 3.679 3.679 0 0 0-2.79 1.056 5.285 5.285 0 0 0-1.316 2.777zm24.68-1.759c0-1.018-.166-1.661-.494-1.929a3.34 3.34 0 0 0-1.988-.4v-.464h7.325v.464a3.156 3.156 0 0 0-2.01.5 3.347 3.347 0 0 0-.439 2.121v10.754a3.348 3.348 0 0 0 .439 2.121 3.126 3.126 0 0 0 2.01.5v.46h-7.325v-.46a3.185 3.185 0 0 0 2.044-.507 3.331 3.331 0 0 0 .438-2.116v-9.706l-7.849 10.055a5.3 5.3 0 0 0 .145 1.457 1.037 1.037 0 0 0 .609.579 5 5 0 0 0 1.7.239v.46h-7.3v-.46a3.114 3.114 0 0 0 2.01-.5 3.342 3.342 0 0 0 .439-2.121V29.262a3.342 3.342 0 0 0-.439-2.121 3.144 3.144 0 0 0-2.01-.5v-.464h7.3v.464a3.166 3.166 0 0 0-2.019.5 3.316 3.316 0 0 0-.439 2.121v9.745z" fill-rule="evenodd"/><path data-name="Path 163" d="M111.375 22.715h16.819v.559a3.789 3.789 0 0 0-2.417.6 4 4 0 0 0-.528 2.555v11.288a12.685 12.685 0 0 0 .374 4.053c.251.513 1.062.775 2.437.775v6.418h-.513a9 9 0 0 0-1.447-3.587 4.961 4.961 0 0 0-2.273-1.821 9.053 9.053 0 0 0-3.042-.457h-5.2q-3.409 0-5.013 1.847a7.789 7.789 0 0 0-1.914 4.017h-.513v-6.418a5.03 5.03 0 0 0 3.94-2.9 19.145 19.145 0 0 0 2.1-6.6 45.256 45.256 0 0 0 .585-6.429 4.924 4.924 0 0 0-.375-2.211 1.721 1.721 0 0 0-.892-.882 8.855 8.855 0 0 0-2.13-.242zm4.9 1.114q-.377 8.912-1.427 12.509a15.034 15.034 0 0 1-2.827 5.649h7.548a4.67 4.67 0 0 0 2.412-.354c.266-.236.4-1 .4-2.289V23.832zm18.912 0v8.055h4.479a3.659 3.659 0 0 0 2.329-.523 3.384 3.384 0 0 0 .872-2.437h.554v7.1h-.554a7.816 7.816 0 0 0-.42-1.908 1.889 1.889 0 0 0-.888-.826 4.526 4.526 0 0 0-1.893-.3h-4.479v6.721a6.463 6.463 0 0 0 .118 1.647.974.974 0 0 0 .421.467 2.622 2.622 0 0 0 1.144.17h3.459a9.179 9.179 0 0 0 2.509-.242 3.7 3.7 0 0 0 1.5-.944 11.6 11.6 0 0 0 1.909-2.811h.6l-1.755 5.11h-15.71v-.554h.724a2.848 2.848 0 0 0 1.365-.35 1.266 1.266 0 0 0 .657-.718 7.257 7.257 0 0 0 .169-1.97V26.273a4.383 4.383 0 0 0-.39-2.39 2.321 2.321 0 0 0-1.8-.6h-.724v-.559h15.71l.226 4.464h-.59a6.982 6.982 0 0 0-.7-2.206 2.4 2.4 0 0 0-1.134-.919 6.856 6.856 0 0 0-2.119-.225zm18.7 8.343h9.471v-5.834a6.866 6.866 0 0 0-.195-2.057 1.362 1.362 0 0 0-.631-.646 2.758 2.758 0 0 0-1.37-.36h-.718v-.559h8.717v.559h-.723a2.853 2.853 0 0 0-1.365.344 1.271 1.271 0 0 0-.657.729 7.407 7.407 0 0 0-.169 1.99v13.156a6.626 6.626 0 0 0 .2 2.042 1.318 1.318 0 0 0 .616.646 2.847 2.847 0 0 0 1.38.365h.723v.554h-8.717v-.554h.718a2.159 2.159 0 0 0 1.821-.739 4.4 4.4 0 0 0 .375-2.314v-6.208h-9.471v6.208a6.8 6.8 0 0 0 .195 2.042 1.351 1.351 0 0 0 .636.646 2.748 2.748 0 0 0 1.365.365h.739v.554h-8.742v-.554h.718a2.186 2.186 0 0 0 1.837-.739 4.63 4.63 0 0 0 .359-2.314V26.338a6.887 6.887 0 0 0-.194-2.057 1.37 1.37 0 0 0-.616-.646 2.842 2.842 0 0 0-1.386-.36h-.718v-.559h8.733v.559h-.743a2.84 2.84 0 0 0-1.365.344 1.288 1.288 0 0 0-.646.729 6.82 6.82 0 0 0-.185 1.99zm33.719-9.456l.226 4.782h-.575a5.622 5.622 0 0 0-.452-1.806 3.024 3.024 0 0 0-1.236-1.283 4.311 4.311 0 0 0-2.036-.415h-2.878v15.577a4.211 4.211 0 0 0 .405 2.344 2.26 2.26 0 0 0 1.76.632h.708v.554h-8.646v-.554h.723a2.062 2.062 0 0 0 1.832-.785 4.536 4.536 0 0 0 .333-2.191V23.994h-2.452a6.9 6.9 0 0 0-2.027.21 2.784 2.784 0 0 0-1.339 1.1 4.481 4.481 0 0 0-.662 2.2h-.569l.241-4.782z" fill-rule="evenodd"/><path data-name="Path 164" d="M0 43.003v-43h42.913v16.443C34.198 3.576 16.122 7.423 15.72 26.654c-.467-16.51 7.091-25.529 21.773-20.056-3.3-1.649-29.131-13.435-26.832 36.318z" fill-rule="evenodd"/><path data-name="Rectangle 221" d="M.195 48.135h106.426v1.032H.195z"/><path data-name="Rectangle 222" d="M110.577 48.135h14.974v1.032h-14.974z"/><path data-name="Rectangle 223" d="M129.83 48.135h58.387v1.032H129.83z"/></g></svg>